<svg width="32" height="32" viewBox="0 0 32 32" fill="none" xmlns="http://www.w3.org/2000/svg">
  <!-- Background circle -->
  <circle cx="16" cy="16" r="16" fill="#4F46E5"/>
  
  <!-- Doctor's head (larger and more prominent) -->
  <circle cx="16" cy="14" r="8" fill="#FDE68A"/>
  
  <!-- Doctor's hat (simplified and larger) -->
  <ellipse cx="16" cy="8" rx="7" ry="2.5" fill="#FFFFFF"/>
  
  <!-- Medical cross on hat (larger and bolder) -->
  <rect x="14.5" y="6" width="3" height="4" fill="#EF4444"/>
  <rect x="13" y="7.2" width="6" height="2.6" fill="#EF4444"/>
  
  <!-- Eyes (larger and more visible) -->
  <circle cx="13" cy="12.5" r="1.2" fill="#1F2937"/>
  <circle cx="19" cy="12.5" r="1.2" fill="#1F2937"/>
  
  <!-- Smile (more prominent) -->
  <path d="M12 16 Q16 18.5 20 16" stroke="#1F2937" strokeWidth="2" fill="none" strokeLinecap="round"/>
  
  <!-- Shield (larger and more visible) -->
  <path d="M16 20 L22 21.5 Q22 25 19.5 27.5 Q17.5 29.5 16 29.5 Q14.5 29.5 12.5 27.5 Q10 25 10 21.5 L16 20 Z" fill="#10B981"/>
  
  <!-- Medical cross on shield (larger) -->
  <rect x="14.5" y="22" width="3" height="6" fill="#FFFFFF"/>
  <rect x="12.5" y="24.5" width="7" height="2" fill="#FFFFFF"/>
</svg>